<svg xmlns="http://www.w3.org/2000/svg" width="1200" height="630" viewBox="0 0 1200 630">
<defs><linearGradient id="bg" x1="0" y1="0" x2="1" y2="1"><stop offset="0" stop-color="#0b1220"/><stop offset="1" stop-color="#06080b"/></linearGradient>
<linearGradient id="g" x1="0" y1="0" x2="1" y2="1"><stop offset="0" stop-color="#ffd596"/><stop offset="1" stop-color="#e8823a"/></linearGradient>
<linearGradient id="sun" x1="0" y1="0" x2="0" y2="1"><stop offset="0" stop-color="#e8823a" stop-opacity=".35"/><stop offset="1" stop-color="#e8823a" stop-opacity="0"/></linearGradient></defs>
<rect width="1200" height="630" fill="url(#bg)"/>
<rect width="1200" height="630" fill="url(#sun)"/>
<path d="M0 630V470l120-80 110 60 150-130 130 110 120-90 170 150 140-100 130 90 130-70v220z" fill="#121a2a"/>
<path d="M0 630V540l160-70 140 50 170-90 160 100 180-80 190 90v190z" fill="#0a0f1a"/>
<g transform="translate(90 120) scale(2.2)"><path d="M2.500 42 19 11l7.500 14 5-8.500L45.500 42z" fill="url(#g)"/><path d="M24 42c12-3.500 11-10 0-13.500C13 25 15 19 21.500 14.500" fill="none" stroke="#06080b" stroke-width="3.600" stroke-linecap="round"/><circle cx="38.500" cy="9.500" r="3.200" fill="#eef1f5"/></g>
<text x="90" y="310" font-family="Georgia, serif" font-size="76" fill="#eef1f5">Samaksh <tspan fill="#ffb86b" font-style="italic">Travels</tspan></text>
<text x="92" y="372" font-family="Helvetica, Arial, sans-serif" font-size="34" fill="#b8c0cc">Flights · Trains · Cabs · Hotels · Holidays</text>
<text x="92" y="425" font-family="Helvetica, Arial, sans-serif" font-size="28" fill="#ffb86b">Udhampur, Jammu &amp; Kashmir · Vaishno Devi Yatra</text>
<text x="92" y="560" font-family="Helvetica, Arial, sans-serif" font-size="26" fill="#eef1f5">samakshtravels.com · WhatsApp +91 94199 61983</text>
</svg>
